<svg width="31" height="31" viewBox="0 0 31 31" fill="none" xmlns="http://www.w3.org/2000/svg">
<path d="M-1.79706 14.6015L-1.79706 31.0001L14.6015 31.0001H31V14.6015L31 -1.79704L14.6015 -1.79704H-1.79706L-1.79706 14.6015ZM24.6332 13.2948C25.4662 13.5031 26.1013 13.8727 26.6844 14.4766C26.9863 14.7993 27.434 15.3876 27.4704 15.5282C27.4809 15.5698 26.0544 16.5277 25.1903 17.0639C25.159 17.0847 25.0341 16.9494 24.8935 16.7411C24.4719 16.1268 24.0294 15.8613 23.3526 15.8145C22.3583 15.7468 21.7179 16.2674 21.7231 17.1368C21.7231 17.3919 21.7596 17.5428 21.8637 17.7511C22.0824 18.204 22.4884 18.4747 23.7639 19.0265C26.1117 20.0365 27.1164 20.7028 27.7412 21.6503C28.4387 22.7071 28.5949 24.3938 28.1212 25.6484C27.6006 27.0124 26.3095 27.939 24.4927 28.2461C23.9304 28.3451 22.5977 28.3294 21.9939 28.2201C20.6768 27.9859 19.4274 27.3351 18.6569 26.4813C18.3549 26.1482 17.7667 25.2788 17.8031 25.2163C17.8187 25.1955 17.9541 25.1122 18.1051 25.0237C18.2508 24.9404 18.8026 24.6228 19.3232 24.3209L20.2655 23.7743L20.4633 24.0658C20.7392 24.4875 21.3431 25.0653 21.7075 25.258C22.7539 25.8098 24.1907 25.7317 24.8987 25.0966C25.2007 24.8207 25.3256 24.5343 25.3256 24.1127C25.3256 23.7326 25.2788 23.5661 25.0809 23.2797C24.8259 22.9153 24.3053 22.6082 22.8268 21.9678C21.1349 21.239 20.4061 20.7861 19.7397 20.0677C19.3545 19.6512 18.9901 18.9849 18.8391 18.4278C18.7141 17.9645 18.6829 16.8036 18.7818 16.3351C19.1306 14.7004 20.3644 13.5603 22.1448 13.2219C22.7227 13.1126 24.0658 13.1543 24.6332 13.2948ZM16.9337 14.664L16.9441 16.0071H14.8097H12.6753V22.072L12.6753 28.1368H11.1656H9.6559L9.6559 22.072V16.0071H7.52148H5.38707V14.69C5.38707 13.9612 5.40269 13.3521 5.42351 13.3365C5.43913 13.3157 8.03687 13.3052 11.1864 13.3105L16.9181 13.3261L16.9337 14.664Z" fill="#FCFCFC"/>
</svg>
